<svg xmlns:xlink="http://www.w3.org/1999/xlink" xmlns="http://www.w3.org/2000/svg" class="contact-logo" title="bank" width="66.41"  height="69.991" ><defs><svg id="bank" viewBox="0 0 66.41 69.991">
        <path d="M15.65 57.779H6.576V31.472h10v2.422H9.005v21.46h4.223v-19.1h2.424z"></path>
        <path d="M30.379 57.779h-9.075V31.472h10v2.422h-7.572v21.46h4.227v-19.1h2.424z"></path>
        <path d="M45.108 57.779h-9.075V31.472h10v2.422h-7.572v21.46h4.227v-19.1h2.424z"></path>
        <path d="M59.838 57.779h-9.076V31.472h8.182v2.422h-5.758v21.46h4.227v-19.1h2.424z"></path>
        <path d="M66.412 33.896H0v-8.53h66.412v2.424H2.424v3.683h61.563v-2.067h2.424z"></path>
        <path d="M61.962 63.885H4.451v-8.529h57.511zM6.876 61.462h52.662V57.78H6.876z"></path>
        <path d="M66.412 69.991H0v-8.53h66.412v2.424H2.424v3.683h61.563v-1.885h2.424z"></path>
        <path d="M65.594 27.79H.818L33.206-.001zM7.365 25.366h51.683L33.207 3.194z"></path>
        <path d="M33.211 21.587a5.485 5.485 0 1 1 5.485-5.485 5.492 5.492 0 0 1-5.485 5.485zm0-8.546a3.061 3.061 0 1 0 3.06 3.062 3.065 3.065 0 0 0-3.06-3.063z"></path>
    </svg></defs>
                                    <use xlink:href="#bank" fill="#6C7788"></use>
                                </svg>