<svg xmlns:xlink="http://www.w3.org/1999/xlink" id="Layer_1" data-name="Layer 1" xmlns="http://www.w3.org/2000/svg" viewBox="0 0 23.91 24" width="65"  height="65" >
  <title>briefcase</title>
  <path d="M23,5.48a3.22,3.22,0,0,0-2.28-.95H18V3.38A3.37,3.37,0,0,0,17,1h0a3.37,3.37,0,0,0-2.38-1H9.36A3.37,3.37,0,0,0,7,1H7A3.37,3.37,0,0,0,6,3.38V4.53H3.27A3.23,3.23,0,0,0,0,7.75v13A3.22,3.22,0,0,0,.93,23L1,23.05A3.2,3.2,0,0,0,3.27,24H20.73A3.2,3.2,0,0,0,23,23.05h0A3.21,3.21,0,0,0,24,20.78v-13A3.2,3.2,0,0,0,23,5.48h0ZM7.82,3.38h0A1.53,1.53,0,0,1,8.27,2.3h0a1.54,1.54,0,0,1,1.09-.45h5.29a1.53,1.53,0,0,1,1.08.45h0a1.52,1.52,0,0,1,.45,1.08V4.53H7.82V3.38h0Zm14.29,17.4h0a1.38,1.38,0,0,1-.4,1h0a1.37,1.37,0,0,1-1,.4H3.27a1.36,1.36,0,0,1-1-.4l0,0a1.38,1.38,0,0,1-.37-0.94v-13A1.38,1.38,0,0,1,3.27,6.38H20.73a1.38,1.38,0,0,1,1,.4,1.37,1.37,0,0,1,.4,1v13h0ZM19.24,9.28H4.76a0.55,0.55,0,1,0,0,1.11H19.24a0.55,0.55,0,0,0,0-1.11h0Zm0,4.43H4.76a0.55,0.55,0,1,0,0,1.11H19.24a0.55,0.55,0,0,0,0-1.11h0Zm0,4.43H4.76a0.55,0.55,0,1,0,0,1.11H19.24a0.55,0.55,0,0,0,0-1.11h0Z" transform="translate(-0.04)" fill="#6C7788"></path>
</svg>