<svg xmlns:xlink="http://www.w3.org/1999/xlink" id="Layer_1" data-name="Layer 1" xmlns="http://www.w3.org/2000/svg" viewBox="0 0 24 24" width="65"  height="65" >
  <title>globe</title>
  <path d="M12,0a12,12,0,0,1,8.48,3.52h0a12,12,0,0,1,0,17l-0.05,0a12,12,0,0,1-16.91,0h0a12,12,0,0,1,0-17l0.05,0A12,12,0,0,1,12,0h0ZM10.37,2h0l-0.11.6A6.54,6.54,0,0,1,9.13,5.8,10.16,10.16,0,0,0,7.3,7.49,4.31,4.31,0,0,0,9,7.57H9a4.94,4.94,0,0,1,2.26.64,3.94,3.94,0,0,1,1.35,1.18,2.24,2.24,0,0,1,.36,1.81h0a3,3,0,0,1-.72,1.3C10.9,14,10.92,14.15,11,14.9a11.81,11.81,0,0,1,.09,1.3c0,0.31,0,.63,0,0.92a13.43,13.43,0,0,1,0,1.75v0c-0.33,2.68-2.67.79-3.49-.14a13.23,13.23,0,0,1-2-2.89,1.79,1.79,0,0,0-.79-0.54,2.68,2.68,0,0,1-1.92-2.46,7.28,7.28,0,0,1,.31-2.26,1.23,1.23,0,0,0,.21-0.36,2.1,2.1,0,0,0-.87.08c-0.19,0-.38.08-0.58,0.1a10.16,10.16,0,0,0,2.85,8.74h0A10.19,10.19,0,0,0,8.69,21.6c0.87-.16,1.75-0.57,2.58-0.72a10.64,10.64,0,0,1,5.68,0,10.12,10.12,0,0,0,2.19-1.65l0,0a10,10,0,0,0,1.35-1.67,5.05,5.05,0,0,1-1.13.75,1.42,1.42,0,0,1-1.26.08h0a0.73,0.73,0,0,1-.22-0.17l0,0c-0.83-1-.41-2.26,0-3.57s0.94-2.84-.82-3.37a4.52,4.52,0,0,1-.83-0.34A4.23,4.23,0,0,1,14.67,9.4c-0.86-1.4-.29-2.19.64-3.21l0.39-.44a1.77,1.77,0,0,1-2.12-1.12h0a2.44,2.44,0,0,1-.13-0.56V4a3.59,3.59,0,0,0-1.36-2.18H12A10.21,10.21,0,0,0,10.37,2h0ZM2.23,9.27h0l0.1,0a2.71,2.71,0,0,1,1.45,0c0.89,0.3.75,0.8,0.51,1.69A6.31,6.31,0,0,0,4,12.83a1.79,1.79,0,0,0,1.3,1.51,2.36,2.36,0,0,1,1.32,1.11A12.12,12.12,0,0,0,8.43,18c0.21,0.24,1.44,1.75,1.57.73a13,13,0,0,0,0-1.6c0-.29,0-0.6,0-0.94A10.56,10.56,0,0,0,9.91,15c-0.14-1.16-.17-1.4,1.49-3.27a1.94,1.94,0,0,0,.47-0.82A1.16,1.16,0,0,0,11.67,10a2.81,2.81,0,0,0-1-.84A3.8,3.8,0,0,0,9,8.68H9c-2.16,0-2.74,0-2.77-1.16S7.67,5.69,8.35,5a6.21,6.21,0,0,0,.82-2.63l0-.14A10.13,10.13,0,0,0,4.87,4.78l0,0a10.14,10.14,0,0,0-2.6,4.45h0Zm13,12.36h0a13.18,13.18,0,0,0-3.77.33l-0.56.13a10.34,10.34,0,0,0,1.09.06,10.17,10.17,0,0,0,3.24-.53h0Zm6.56-7.47h0A0.58,0.58,0,0,1,22,14a10.32,10.32,0,0,0,.19-2,10.12,10.12,0,0,0-3-7.18h0A10.1,10.1,0,0,0,13.66,2a3.58,3.58,0,0,1,.89,1.93h0a1.55,1.55,0,0,0,.07.31,0.9,0.9,0,0,0,1,.4c0.6,0,1.09-.06,1.27.6a1.89,1.89,0,0,1-.79,1.69c-0.62.67-1.06,1-.52,1.88a3.06,3.06,0,0,0,1.17,1.06,3.52,3.52,0,0,0,.63.26C20.25,11,19.59,13,19,14.91c-0.32,1-.64,1.95-0.27,2.46l0.26-.11a4.2,4.2,0,0,0,1-.71,9.19,9.19,0,0,0,1.84-2.39h0Zm-6-8.5h0a0.25,0.25,0,0,0,.07-0.12c0-.14,0,0-0.07.12h0Z" transform="translate(-0.01 0)" fill="#003087"></path>
</svg>