<svg xmlns:xlink="http://www.w3.org/1999/xlink" id="Layer_1" data-name="Layer 1" xmlns="http://www.w3.org/2000/svg" viewBox="0 0 24 23.87" width="65"  height="65" >
  <title>safe</title>
  <path d="M15.29,13.78A2.7,2.7,0,0,0,17.17,13l0,0a2.7,2.7,0,0,0,0-3.83h0a2.71,2.71,0,1,0-1.91,4.63h0ZM14.17,10h0a1.58,1.58,0,0,1,2.23,0h0a1.58,1.58,0,0,1,0,2.23l0,0A1.58,1.58,0,0,1,14.17,10h0ZM12,14.36h0a4.66,4.66,0,1,0,0-6.62l0,0a4.66,4.66,0,0,0,0,6.59h0Zm0.8-5.78h0l0,0a3.53,3.53,0,1,1-1.06,2.52,3.52,3.52,0,0,1,1.06-2.52h0ZM23.06,0.07H0.94A0.94,0.94,0,0,0,0,1V21.12a1,1,0,0,0,.94.94h1.8V23a0.95,0.95,0,0,0,1.89,0V22.07H19.37V23a0.94,0.94,0,0,0,1.89,0V22.07h1.8A1,1,0,0,0,24,21.12V1A0.94,0.94,0,0,0,23.06.07h0ZM22.11,20.18H1.89V2H22.11V20.18h0ZM4.29,15.76h0l0,0a1.77,1.77,0,0,0,0,2.5h0a1.77,1.77,0,0,0,2.46,0l0,0a1.77,1.77,0,0,0,0-2.5h0a1.76,1.76,0,0,0-.68-0.42v-9A1.78,1.78,0,0,0,6.75,6h0a1.76,1.76,0,0,0,0-2.5h0a1.76,1.76,0,0,0-2.5,0h0a1.76,1.76,0,0,0,0,2.5h0a1.77,1.77,0,0,0,.68.42v9a1.76,1.76,0,0,0-.65.39h0ZM4.87,4.71h0a0.64,0.64,0,0,1,.18-0.45h0a0.64,0.64,0,0,1,.9,0H6a0.65,0.65,0,0,1,.18.45A0.64,0.64,0,0,1,6,5.15H6a0.65,0.65,0,0,1-.9,0h0a0.64,0.64,0,0,1-.18-0.45h0ZM5.05,16.6h0l0,0a0.62,0.62,0,0,1,.41-0.16h0A0.64,0.64,0,0,1,6,16.6a0.64,0.64,0,0,1,0,.9l0,0h0a0.64,0.64,0,0,1-.43.16,0.64,0.64,0,0,1-.45-1.08h0Z" transform="translate(0 -0.07)" fill="#6C7788"></path>
</svg>