<svg xmlns:xlink="http://www.w3.org/1999/xlink" id="money" xmlns="http://www.w3.org/2000/svg" width="48.884" height="46.281" viewBox="0 0 48.884 46.281">
  <g id="Group_37" data-name="Group 37" transform="translate(30.794 10.208)" fill="#6C7788">
    <g id="Group_36" data-name="Group 36" fill="#6C7788">
      <path id="Path_14" data-name="Path 14" d="M764.749,427.389a1.142,1.142,0,1,1-1.142-1.142A1.142,1.142,0,0,1,764.749,427.389Z" transform="translate(-762.465 -426.247)" fill="#6C7788"></path>
    </g>
  </g>
  <g id="Group_39" data-name="Group 39" transform="translate(15.855 20.124)" fill="#6C7788">
    <g id="Group_38" data-name="Group 38" fill="#6C7788">
      <path id="Path_15" data-name="Path 15" d="M740.527,443.466a1.142,1.142,0,1,1-1.142-1.142A1.142,1.142,0,0,1,740.527,443.466Z" transform="translate(-738.244 -442.324)" fill="#6C7788"></path>
    </g>
  </g>
  <g id="Group_41" data-name="Group 41" transform="translate(18.868)" fill="#6C7788">
    <g id="Group_40" data-name="Group 40" fill="#6C7788">
      <path id="Path_16" data-name="Path 16" d="M759.229,430.166l-.914-1.342,11.886-8.1-14.186-9.083-11.97,8.161-.915-1.341,12.857-8.765,17.159,10.987Z" transform="translate(-743.13 -409.697)" fill="#6C7788"></path>
    </g>
  </g>
  <g id="Group_43" data-name="Group 43" transform="translate(0 12.075)" fill="#6C7788">
    <g id="Group_42" data-name="Group 42" fill="#6C7788">
      <path id="Path_17" data-name="Path 17" d="M729.7,449.806l-17.159-10.987,14.01-9.544.914,1.342-11.979,8.16,14.186,9.084,11.173-7.616.914,1.342Z" transform="translate(-712.539 -429.274)" fill="#6C7788"></path>
    </g>
  </g>
  <g id="Group_45" data-name="Group 45" transform="translate(22.879 5.175)" fill="#6C7788">
    <g id="Group_44" data-name="Group 44" fill="#6C7788">
      <path id="Path_18" data-name="Path 18" d="M760.723,428.837l-.914-1.342,5.051-3.443-6.279-4.019-8.032,5.476-.915-1.341,8.919-6.081,9.253,5.923Z" transform="translate(-749.633 -418.087)" fill="#6C7788"></path>
    </g>
  </g>
  <g id="Group_47" data-name="Group 47" transform="translate(7.826 16.705)" fill="#6C7788">
    <g id="Group_46" data-name="Group 46" fill="#6C7788">
      <path id="Path_19" data-name="Path 19" d="M734.487,447.507l-9.259-5.922,7.05-4.8.914,1.342-5.018,3.419,6.285,4.02,7.849-5.348.914,1.342Z" transform="translate(-725.228 -436.78)" fill="#6C7788"></path>
    </g>
  </g>
  <g id="Group_49" data-name="Group 49" transform="translate(0.351 25.028)" fill="#6C7788">
    <g id="Group_48" data-name="Group 48" fill="#6C7788">
      <path id="Path_20" data-name="Path 20" d="M729.917,462.411l-16.808-10.769.876-1.367,15.9,10.19,11.921-8.124.914,1.342Z" transform="translate(-713.108 -450.275)" fill="#6C7788"></path>
    </g>
  </g>
  <g id="Group_51" data-name="Group 51" transform="translate(35.146 14.438)" fill="#6C7788">
    <g id="Group_50" data-name="Group 50" transform="translate(0 0)" fill="#6C7788">
      <rect id="Rectangle_19" data-name="Rectangle 19" width="15.1" height="1.624" transform="translate(0 8.502) rotate(-34.268)" fill="#6C7788"></rect>
    </g>
  </g>
  <g id="Group_53" data-name="Group 53" transform="translate(0.351 29.587)" fill="#6C7788">
    <g id="Group_52" data-name="Group 52" fill="#6C7788">
      <path id="Path_21" data-name="Path 21" d="M729.917,469.8l-16.808-10.768.876-1.367,15.9,10.19,11.558-7.877.914,1.342Z" transform="translate(-713.108 -457.666)" fill="#6C7788"></path>
    </g>
  </g>
  <g id="Group_55" data-name="Group 55" transform="translate(35.146 18.996)" fill="#6C7788">
    <g id="Group_54" data-name="Group 54" transform="translate(0 0)" fill="#6C7788">
      <rect id="Rectangle_20" data-name="Rectangle 20" width="15.1" height="1.624" transform="translate(0 8.502) rotate(-34.268)" fill="#6C7788"></rect>
    </g>
  </g>
  <g id="Group_57" data-name="Group 57" transform="translate(0.351 34.145)" fill="#6C7788">
    <g id="Group_56" data-name="Group 56" fill="#6C7788">
      <path id="Path_22" data-name="Path 22" d="M729.917,477.192l-16.808-10.769.876-1.367,15.9,10.19,12.564-8.562.914,1.342Z" transform="translate(-713.108 -465.056)" fill="#6C7788"></path>
    </g>
  </g>
  <g id="Group_59" data-name="Group 59" transform="translate(35.146 23.554)" fill="#6C7788">
    <g id="Group_58" data-name="Group 58" transform="translate(0 0)" fill="#6C7788">
      <rect id="Rectangle_21" data-name="Rectangle 21" width="15.1" height="1.624" transform="translate(0 8.502) rotate(-34.268)" fill="#6C7788"></rect>
    </g>
  </g>
  <g id="Group_61" data-name="Group 61" transform="translate(12.684 7.953)" fill="#6C7788">
    <g id="Group_60" data-name="Group 60" fill="#6C7788">
      <path id="Path_23" data-name="Path 23" d="M750.657,453.285a1.574,1.574,0,0,1-1.571-1.572V438.357l-15.111-9.672a1.889,1.889,0,0,1-.059-3.144l3.764-2.612a1.887,1.887,0,0,1,2.1-.039l16.983,10.869v14.757a1.572,1.572,0,0,1-.666,1.284l-4.53,3.2A1.568,1.568,0,0,1,750.657,453.285Zm-11.9-29.07a.27.27,0,0,0-.154.048l-3.763,2.611a.266.266,0,0,0,.008.443l15.86,10.151v14.144l4.447-3.139-.022-13.824L738.9,424.257A.264.264,0,0,0,738.758,424.216Z" transform="translate(-733.104 -422.591)" fill="#6C7788"></path>
    </g>
  </g>
</svg>