<svg xmlns:xlink="http://www.w3.org/1999/xlink" xmlns="http://www.w3.org/2000/svg" width="52.354" height="41.315" viewBox="0 0 52.354 41.315">
  <g id="credit" transform="translate(-847.657 -102.679)" fill="#6C7788">
    <g id="Group_593" data-name="Group 593" transform="translate(847.657 102.679)" fill="#6C7788">
      <path id="Path_127" data-name="Path 127" d="M856.159,136.086a2.062,2.062,0,0,1-1.945-1.378l-6.44-18.428a2.056,2.056,0,0,1,1.264-2.622L880.119,102.8a2.057,2.057,0,0,1,2.622,1.264l4.02,11.5-1.578.551-4.019-11.5a.387.387,0,0,0-.493-.237l-31.082,10.863a.387.387,0,0,0-.238.492l6.441,18.428a.388.388,0,0,0,.493.237l.789-.276.551,1.578-.789.276A2.048,2.048,0,0,1,856.159,136.086Z" transform="translate(-847.657 -102.679)" fill="#6C7788"></path>
    </g>
    <g id="Group_594" data-name="Group 594" transform="translate(871.822 109.417)" fill="#6C7788">
      <path id="Path_128" data-name="Path 128" d="M888.527,120.008a2.487,2.487,0,0,1-2.346-1.664l-.323-.925a2.481,2.481,0,0,1,1.525-3.163l2.355-.824a2.482,2.482,0,0,1,3.163,1.525l.323.925a2.481,2.481,0,0,1-1.524,3.163l-2.355.823A2.474,2.474,0,0,1,888.527,120.008Zm.541-.928h0Zm1.488-4.115a.8.8,0,0,0-.267.046l-2.355.823a.811.811,0,0,0-.5,1.034l.323.926a.814.814,0,0,0,1.034.5l2.355-.823a.811.811,0,0,0,.5-1.034l-.323-.926A.814.814,0,0,0,890.555,114.964Z" transform="translate(-885.717 -113.292)" fill="#6C7788"></path>
    </g>
    <g id="Group_595" data-name="Group 595" transform="translate(867.68 111.706)" fill="#6C7788">
      <rect id="Rectangle_183" data-name="Rectangle 183" width="1.671" height="2.414" transform="matrix(0.944, -0.33, 0.33, 0.944, 0, 0.552)" fill="#6C7788"></rect>
    </g>
    <g id="Group_596" data-name="Group 596" transform="translate(864.189 112.926)" fill="#6C7788">
      <rect id="Rectangle_184" data-name="Rectangle 184" width="1.671" height="2.414" transform="matrix(0.944, -0.33, 0.33, 0.944, 0, 0.552)" fill="#6C7788"></rect>
    </g>
    <g id="Group_597" data-name="Group 597" transform="translate(860.698 114.146)" fill="#6C7788">
      <rect id="Rectangle_185" data-name="Rectangle 185" width="1.671" height="2.415" transform="matrix(0.944, -0.33, 0.33, 0.944, 0, 0.552)" fill="#6C7788"></rect>
    </g>
    <g id="Group_598" data-name="Group 598" transform="translate(857.207 115.366)" fill="#6C7788">
      <rect id="Rectangle_186" data-name="Rectangle 186" width="1.671" height="2.415" transform="matrix(0.944, -0.33, 0.33, 0.944, 0, 0.552)" fill="#6C7788"></rect>
    </g>
    <g id="Group_599" data-name="Group 599" transform="translate(853.716 116.586)" fill="#6C7788">
      <rect id="Rectangle_187" data-name="Rectangle 187" width="1.671" height="2.414" transform="matrix(0.944, -0.33, 0.33, 0.944, 0, 0.552)" fill="#6C7788"></rect>
    </g>
    <g id="Group_607" data-name="Group 607" transform="translate(858.541 117.607)" fill="#6C7788">
      <g id="Group_600" data-name="Group 600" transform="translate(0)" fill="#6C7788">
        <path id="Path_129" data-name="Path 129" d="M904.058,152.577H867.009a2.213,2.213,0,0,1-2.21-2.211V128.4a2.212,2.212,0,0,1,2.21-2.21h37.049a2.212,2.212,0,0,1,2.21,2.21v21.965A2.213,2.213,0,0,1,904.058,152.577Zm-37.049-24.715a.539.539,0,0,0-.538.539v21.965a.539.539,0,0,0,.538.54h37.049a.539.539,0,0,0,.538-.54V128.4a.539.539,0,0,0-.538-.539Z" transform="translate(-864.799 -126.191)" fill="#6C7788"></path>
      </g>
      <g id="Group_601" data-name="Group 601" transform="translate(0 5.164)" fill="#6C7788">
        <rect id="Rectangle_188" data-name="Rectangle 188" width="41.47" height="1.671" fill="#6C7788"></rect>
      </g>
      <g id="Group_602" data-name="Group 602" transform="translate(0 10.422)" fill="#6C7788">
        <rect id="Rectangle_189" data-name="Rectangle 189" width="37.525" height="1.671" fill="#6C7788"></rect>
      </g>
      <g id="Group_603" data-name="Group 603" transform="translate(3.571 17.405)" fill="#6C7788">
        <path id="Path_130" data-name="Path 130" d="M873.183,159.122a2.759,2.759,0,1,1,2.759-2.759A2.763,2.763,0,0,1,873.183,159.122Zm0-3.848a1.088,1.088,0,1,0,1.087,1.088A1.089,1.089,0,0,0,873.183,155.275Z" transform="translate(-870.423 -153.604)" fill="#6C7788"></path>
      </g>
      <g id="Group_604" data-name="Group 604" transform="translate(10.31 21.253)" fill="#6C7788">
        <rect id="Rectangle_190" data-name="Rectangle 190" width="3.749" height="1.671" fill="#6C7788"></rect>
      </g>
      <g id="Group_605" data-name="Group 605" transform="translate(10.31 17.405)" fill="#6C7788">
        <rect id="Rectangle_191" data-name="Rectangle 191" width="9.491" height="1.671" fill="#6C7788"></rect>
      </g>
      <g id="Group_606" data-name="Group 606" transform="translate(15.691 21.253)" fill="#6C7788">
        <rect id="Rectangle_192" data-name="Rectangle 192" width="9.128" height="1.671" fill="#6C7788"></rect>
      </g>
    </g>
  </g>
</svg>