<svg xmlns:xlink="http://www.w3.org/1999/xlink" xmlns="http://www.w3.org/2000/svg" width="49.821" height="38.255" viewBox="0 0 49.821 38.255">
  <g id="investing" transform="translate(-574.975 -416.299)" fill="#6C7788">
    <g id="Group_621" data-name="Group 621" transform="translate(603.228 419.214)" fill="#6C7788">
      <g id="Group_618" data-name="Group 618" transform="translate(0 1.893)" fill="#6C7788">
        <g id="Group_617" data-name="Group 617" fill="#6C7788">
          <path id="Path_134" data-name="Path 134" d="M624.8,434.177a4.184,4.184,0,0,1-3.59-1.671l-.434-.687,1.374-.865.432.687a2.672,2.672,0,0,0,2.216.912c2.339,0,2.339-.88,2.339-1.3s0-1.3-2.339-1.3c-2.482,0-3.963-1.094-3.963-2.926s1.481-2.927,3.963-2.927a4.352,4.352,0,0,1,3.406,1.414l.51.632-1.265,1.018-.509-.633a2.824,2.824,0,0,0-2.141-.807c-1.067,0-2.339.226-2.339,1.3s1.271,1.3,2.339,1.3c3.448,0,3.963,1.834,3.963,2.927S628.247,434.177,624.8,434.177Z" transform="translate(-620.776 -424.094)" fill="#6C7788"></path>
        </g>
      </g>
      <g id="Group_619" data-name="Group 619" transform="translate(3.211)" fill="#6C7788">
        <rect id="Rectangle_196" data-name="Rectangle 196" width="1.624" height="3.517" fill="#6C7788"></rect>
      </g>
      <g id="Group_620" data-name="Group 620" transform="translate(3.211 10.469)" fill="#6C7788">
        <rect id="Rectangle_197" data-name="Rectangle 197" width="1.624" height="3.517" fill="#6C7788"></rect>
      </g>
    </g>
    <g id="Group_622" data-name="Group 622" transform="translate(597.4 416.299)" fill="#6C7788">
      <path id="Path_135" data-name="Path 135" d="M621.18,436a9.85,9.85,0,1,1,9.851-9.85A9.862,9.862,0,0,1,621.18,436Zm0-18.076a8.226,8.226,0,1,0,8.227,8.226A8.235,8.235,0,0,0,621.18,417.923Z" transform="translate(-611.329 -416.299)" fill="#6C7788"></path>
    </g>
    <g id="Group_623" data-name="Group 623" transform="translate(586.391 434.995)" fill="#6C7788">
      <path id="Path_136" data-name="Path 136" d="M611.813,463.422c-.15,0-.3,0-.451-.012l-17.88-.976.089-1.621,17.879.976a6.887,6.887,0,0,0,4.151-1.131l14.185-9.427a1.055,1.055,0,0,0,.314-1.44l-.656-1.057a1.056,1.056,0,0,0-1.3-.421l-11.265,4.639-.618-1.5,11.264-4.638a2.676,2.676,0,0,1,3.3,1.065l.656,1.057a2.67,2.67,0,0,1-.8,3.649L616.5,462.01A8.511,8.511,0,0,1,611.813,463.422Z" transform="translate(-593.482 -446.607)" fill="#6C7788"></path>
    </g>
    <g id="Group_624" data-name="Group 624" transform="translate(582.009 435.157)" fill="#6C7788">
      <path id="Path_137" data-name="Path 137" d="M609.136,456.309c-.041,0-.083,0-.125,0l-8.849-.484.088-1.621,8.849.483a.629.629,0,0,0,.669-.6l.121-2.216a.635.635,0,0,0-.6-.669l-6.93-.379-.226-.268a6.538,6.538,0,0,0-5.573-2.041,11.08,11.08,0,0,0-8.379,4.721l-.447.678-1.356-.893.447-.678a12.752,12.752,0,0,1,9.639-5.449,8.228,8.228,0,0,1,6.672,2.347l6.242.341a2.261,2.261,0,0,1,2.133,2.379l-.121,2.217a2.261,2.261,0,0,1-2.254,2.136Z" transform="translate(-586.378 -446.87)" fill="#6C7788"></path>
    </g>
    <g id="Group_625" data-name="Group 625" transform="translate(574.975 437.975)" fill="#6C7788">
      <path id="Path_138" data-name="Path 138" d="M577.35,468.018l-2.375-15.359,7.885-1.22,2.375,15.36Zm-.522-14,1.878,12.15,4.676-.723-1.879-12.15Z" transform="translate(-574.975 -451.439)" fill="#6C7788"></path>
    </g>
  </g>
</svg>