<svg xmlns:xlink="http://www.w3.org/1999/xlink" xmlns="http://www.w3.org/2000/svg" class="contact-logo" title="calendarIcon" width="68.676"  height="63.834" ><defs><symbol id="calendarIcon" viewBox="0 0 68.676 63.834">
      <g id="calendar-icon" transform="translate(-119.911 -167.287)">
        <path id="Path_131" data-name="Path 131" class="cls-1" d="M2,0H58a2,2,0,0,1,2,2V46a2,2,0,0,1-2,2H2a2,2,0,0,1-2-2V2A2,2,0,0,1,2,0Z" transform="translate(121.411 174.787)"></path>
        <path id="Path_129" data-name="Path 129" class="cls-2" d="M125,221.047V223.8a2.752,2.752,0,0,0,2.753,2.753h55.058a2.752,2.752,0,0,0,2.753-2.753V179.753A2.752,2.752,0,0,0,182.811,177h-2.753" transform="translate(1.524 3.068)"></path>
        <path id="Path_141" data-name="Path 141" class="cls-3" d="M0,0V9" transform="translate(135.411 168.787)"></path>
        <path id="Path_133" data-name="Path 133" class="cls-3" d="M0,0V9" transform="translate(166.411 168.787)"></path>
        <path id="Path_134" data-name="Path 134" class="cls-3" d="M0,0H4" transform="translate(143.411 194.787)"></path>
        <path id="Path_132" data-name="Path 132" class="cls-3" d="M0,0H4" transform="translate(166.411 194.787)"></path>
        <path id="Path_135" data-name="Path 135" class="cls-3" d="M0,0H4" transform="translate(154.411 194.787)"></path>
        <path id="Path_136" data-name="Path 136" class="cls-3" d="M0,0H4" transform="translate(143.411 203.787)"></path>
        <path id="Path_142" data-name="Path 142" class="cls-3" d="M0,0H4" transform="translate(132.411 203.787)"></path>
        <path id="Path_137" data-name="Path 137" class="cls-3" d="M0,0H4" transform="translate(154.411 203.787)"></path>
        <path id="Path_138" data-name="Path 138" class="cls-3" d="M0,0H4" transform="translate(143.411 212.787)"></path>
        <path id="Path_139" data-name="Path 139" class="cls-3" d="M0,0H4" transform="translate(154.411 212.787)"></path>
        <path id="Path_143" data-name="Path 143" class="cls-3" d="M0,0H4" transform="translate(132.411 212.787)"></path>
        <path id="Path_140" data-name="Path 140" class="cls-1" d="M0,0H60" transform="translate(121.411 182.787)"></path>
        <path id="Path_130" data-name="Path 130" class="cls-4" d="M153,194.753l2.753,2.753L161.259,192" transform="translate(12.064 8.715)"></path>
      </g>
    </symbol></defs>
                                    <use xlink:href="#calendarIcon" stroke="#6C7788" fill="none" stroke-width="3px"></use>
                                </svg>