<svg xmlns:xlink="http://www.w3.org/1999/xlink" id="Layer_1" data-name="Layer 1" xmlns="http://www.w3.org/2000/svg" viewBox="0 0 24 21.64" width="72"  height="65" >
  <title>investment</title>
  <path d="M0.54,17.07H5.63a0.54,0.54,0,0,1,.54.54h0v4.65a0.54,0.54,0,0,1-.54.54H0.54A0.55,0.55,0,0,1,0,22.28V17.61a0.54,0.54,0,0,1,.54-0.54h0ZM13.95,4.58h0A20.69,20.69,0,0,1,9.58,8.11a20.71,20.71,0,0,1-7.63,2.76,0.9,0.9,0,0,1-.27-1.79,18.9,18.9,0,0,0,7-2.52A19,19,0,0,0,13,3H9.16a0.91,0.91,0,0,1,0-1.81h5.69a0.91,0.91,0,0,1,.91.9V7.78a0.91,0.91,0,0,1-1.81,0V4.58h0Zm4.43,0.19h5.09a0.54,0.54,0,0,1,.54.54h0v17a0.54,0.54,0,0,1-.54.54H18.37a0.54,0.54,0,0,1-.54-0.54v-17a0.54,0.54,0,0,1,.54-0.54h0Zm4.55,1.08h-4V21.73h4V5.86h0ZM9.46,10.92h0a0.54,0.54,0,0,0-.54.54V22.28a0.54,0.54,0,0,0,.54.54h5.09a0.54,0.54,0,0,0,.54-0.54V11.48h0a0.54,0.54,0,0,0-.54-0.54H9.46ZM14,12h0v9.73H10V12h4ZM5.09,18.15h-4v3.58h4V18.15h0Z" transform="translate(0 -1.18)" fill="#6C7788"></path>
</svg>