<svg xmlns:xlink="http://www.w3.org/1999/xlink" id="Layer_1" data-name="Layer 1" xmlns="http://www.w3.org/2000/svg" viewBox="0 0 24 21.75" width="72"  height="65" >
  <title>logistics</title>
  <path d="M16.57,1.2a0.55,0.55,0,0,1,.75.2h0l5.1,8.83a0.55,0.55,0,0,1-.2.76l0,0-8.81,5.08a0.55,0.55,0,0,1-.75-0.2L7.54,7a0.55,0.55,0,0,1,.2-0.75l8.83-5.1h0Zm0.07,1.23-2.08,1.2L15.93,6a0.55,0.55,0,0,1-.2.76L13,8.34a0.55,0.55,0,0,1-.75-0.2L10.85,5.78,8.77,7l4.55,7.87,2.08-1.2L14,11.29a0.55,0.55,0,0,1,.2-0.75L17,8.95a0.55,0.55,0,0,1,.75.2h0l1.36,2.36,2.08-1.2L16.64,2.43h0Zm-4,14.16a3.1,3.1,0,0,1,1.25.26l8.77-5.07a0.92,0.92,0,0,1,.92,1.59L15.3,18.13a3.14,3.14,0,0,1-.48,3.82h0a3.14,3.14,0,0,1-4.44,0l-0.05-.06a3.14,3.14,0,0,1,.05-4.38l0.09-.08L3.15,4.77H0.92a0.92,0.92,0,1,1,0-1.84H3.68a0.92,0.92,0,0,1,.83.52l7.61,13.18a3.16,3.16,0,0,1,.47,0h0Zm0.92,2.23a1.3,1.3,0,0,0-1.87,1.8l0,0a1.3,1.3,0,0,0,1.83,0h0a1.3,1.3,0,0,0,0-1.83h0Zm0.1-14.63-1.81,1L12.89,7.1l1.81-1L13.61,4.18h0Zm3.46,6-1.81,1,1.08,1.88,1.81-1-1.08-1.88h0Z" fill="#003087" transform="translate(0 -1.13)"></path>
</svg>