<svg xmlns:xlink="http://www.w3.org/1999/xlink" xmlns="http://www.w3.org/2000/svg" class="contact-logo" title="phone" width="60.908"  height="60.841" ><defs><svg id="phone" viewBox="0 0 60.908 60.841">
        <path d="M47.859 60.842c-11.8 0-25.694-12.717-30.424-17.421C-5.013 21.101-.478 8.983 2.513 4.81a5.353 5.353 0 0 1 1.086-1.109L7.106.983a4.721 4.721 0 0 1 6.2.382l8.083 8.029a4.962 4.962 0 0 1 .485 6.438L18.3 21.02a8.069 8.069 0 0 0 .807 1.566c.322.515.726 1.1 1.2 1.726a84.808 84.808 0 0 0 7.679 8.493c7.873 7.828 10.99 9.325 11.849 9.611l5.2-3.628a4.952 4.952 0 0 1 6.4.477l8.08 8.027a4.719 4.719 0 0 1 .419 6.2l-2.743 3.581a5.411 5.411 0 0 1-.966.987 13.3 13.3 0 0 1-8.366 2.782zM9.989 2.805a1.9 1.9 0 0 0-1.164.4l-3.508 2.72a2.54 2.54 0 0 0-.522.523c-7.941 11.08 9.18 29.58 14.618 34.986 11.37 11.306 26.559 21.028 35.1 14.416a2.607 2.607 0 0 0 .458-.475l2.744-3.583a1.9 1.9 0 0 0-.17-2.5l-8.079-8.027a2.142 2.142 0 0 0-2.779-.194l-6 4.128c-2.542.921-9.389-5.139-14.674-10.394a87.481 87.481 0 0 1-7.942-8.8 27.597 27.597 0 0 1-1.34-1.927c-1.134-1.813-1.521-3.1-1.183-3.942l.146-.272 3.9-5.661a2.154 2.154 0 0 0-.18-2.815l-8.082-8.029a1.9 1.9 0 0 0-1.343-.554zm30.113 39.678z"></path>
        <path d="M49.761 29.758h-2.807v-1.4a14.625 14.625 0 0 0-14.435-14.623l-1.4-.018.036-2.807 1.4.017a17.437 17.437 0 0 1 17.21 17.426z"></path>
        <path d="M58.985 29.758h-2.807v-1.4A23.856 23.856 0 0 0 32.519 4.511l-1.4-.013.023-2.807 1.4.012a26.665 26.665 0 0 1 26.441 26.648z"></path>
        <path d="M54.323 19.2l-.556-1.288c-3.03-7.017-12.582-13.029-21.292-13.4l-1.4-.06.119-2.805 1.4.061c9.846.418 20.277 7.048 23.75 15.091l.557 1.289z"></path>
    </svg></defs>
                                    <use xlink:href="#phone" fill="#6C7788"></use>
                                </svg>